<?xml version="1.0" standalone="no"?>
<!DOCTYPE svg PUBLIC "-//W3C//DTD SVG 20010904//EN"
 "http://www.w3.org/TR/2001/REC-SVG-20010904/DTD/svg10.dtd">
<svg version="1.0" xmlns="http://www.w3.org/2000/svg"
 width="700.000000pt" height="700.000000pt" viewBox="0 0 700.000000 700.000000"
 preserveAspectRatio="xMidYMid meet">
<metadata>
Created by potrace 1.14, written by Peter Selinger 2001-2017
</metadata>
<g transform="translate(0.000000,700.000000) scale(0.100000,-0.100000)"
fill="#000000" stroke="none">
<path d="M870 5250 l0 -290 1605 0 1605 0 0 290 0 290 -1605 0 -1605 0 0 -290z"/>
<path d="M4960 5250 l0 -290 585 0 585 0 0 290 0 290 -585 0 -585 0 0 -290z"/>
<path d="M875 4367 c-3 -7 -4 -138 -3 -292 l3 -280 2625 0 2625 0 0 290 0 290
-2623 3 c-2108 2 -2624 0 -2627 -11z"/>
<path d="M875 3197 c-3 -7 -4 -138 -3 -292 l3 -280 728 -3 727 -2 0 295 0 295
-725 0 c-575 0 -727 -3 -730 -13z"/>
<path d="M3210 2915 l0 -295 1458 2 1457 3 0 290 0 290 -1457 3 -1458 2 0
-295z"/>
<path d="M870 1750 l0 -290 1900 0 1900 0 0 290 0 290 -1900 0 -1900 0 0 -290z"/>
</g>
</svg>
